<svg width="346" height="126" viewBox="0 0 346 126" fill="none" xmlns="http://www.w3.org/2000/svg">
<path d="M69.6 84.64L70.58 75.54L72.96 75.68C72.96 78.2467 74.4767 80.3233 77.51 81.91C80.59 83.45 84.0667 84.22 87.94 84.22C91.86 84.22 94.8 83.6367 96.76 82.47C98.72 81.2567 99.7 79.74 99.7 77.92C99.7 74.84 98.0667 72.0867 94.8 69.66C93.4467 68.68 92.0233 67.8167 90.53 67.07C87.1233 65.2967 84.9767 64.1767 84.09 63.71C83.25 63.1967 82.2933 62.6833 81.22 62.17C80.1467 61.6567 79.1433 61.12 78.21 60.56C77.3233 59.9533 76.3667 59.23 75.34 58.39C73.0067 56.5233 71.84 54.4467 71.84 52.16C71.84 49.8267 72.2367 47.7967 73.03 46.07C73.87 44.3433 74.8967 42.99 76.11 42.01C77.37 41.03 78.84 40.2133 80.52 39.56C83.3667 38.5333 86.54 38.02 90.04 38.02C93.5867 38.02 96.9933 38.9067 100.26 40.68L99.42 48.8H97.04C97.04 44.4133 93.3533 42.22 85.98 42.22C82.5733 42.22 80.0067 42.7567 78.28 43.83C76.6 44.9033 75.76 46.3733 75.76 48.24C75.76 51.2267 80.6133 54.82 90.32 59.02C96.7133 61.7733 100.797 64.83 102.57 68.19C103.457 69.87 103.9 71.7133 103.9 73.72C103.9 78.5733 101.94 82.33 98.02 84.99C94.1467 87.65 89.4567 88.98 83.95 88.98C78.4433 88.98 73.66 87.5333 69.6 84.64ZM135.806 79.46L137.066 80.72C134.08 86.2267 128.713 88.98 120.966 88.98C117.373 88.98 114.293 87.3933 111.726 84.22C109.206 81.0467 107.946 77.5 107.946 73.58C107.946 68.3067 109.65 63.8033 113.056 60.07C116.51 56.29 120.686 54.4 125.586 54.4C127.92 54.4 129.973 55.0767 131.746 56.43C134.92 58.9033 136.506 62.1 136.506 66.02C136.506 66.58 136.39 67.2567 136.156 68.05C135.97 68.8433 135.806 69.24 135.666 69.24L113.126 69.94C113.126 73.58 114.27 76.94 116.556 80.02C118.843 83.1 121.62 84.64 124.886 84.64C127.22 84.64 129.366 84.1733 131.326 83.24C133.333 82.26 134.826 81 135.806 79.46ZM113.826 67.14L130.206 66.44C130.3 66.44 130.346 66.02 130.346 65.18C130.346 62.7533 129.623 61.0267 128.176 60C126.776 58.9733 124.816 58.46 122.296 58.46C119.823 58.46 117.793 59.23 116.206 60.77C114.62 62.31 113.826 64.4333 113.826 67.14ZM157.614 88H142.494V86.04H143.614C144.874 86.04 145.667 85.83 145.994 85.41C146.367 84.99 146.554 84.3133 146.554 83.38V62.38C146.554 61.4933 146.251 60.8633 145.644 60.49C145.084 60.07 144.034 59.86 142.494 59.86V57.9C143.427 57.9 144.827 57.5733 146.694 56.92C148.607 56.22 150.054 55.5667 151.034 54.96L152.294 54.68V63.36C153.974 59.6733 155.887 57.2467 158.034 56.08C160.181 54.8667 163.354 54.26 167.554 54.26L167.134 62.38H165.034C165.034 61.7267 164.777 61.0967 164.264 60.49C163.797 59.8833 163.027 59.58 161.954 59.58C159.621 59.58 157.427 60.84 155.374 63.36C153.321 65.88 152.294 68.3067 152.294 70.64V82.96C152.294 83.7067 152.317 84.2433 152.364 84.57C152.457 84.8967 152.737 85.2233 153.204 85.55C153.671 85.8767 154.394 86.04 155.374 86.04H157.614V88ZM197.535 79.46L198.795 80.72C195.808 86.2267 190.442 88.98 182.695 88.98C179.102 88.98 176.022 87.3933 173.455 84.22C170.935 81.0467 169.675 77.5 169.675 73.58C169.675 68.3067 171.378 63.8033 174.785 60.07C178.238 56.29 182.415 54.4 187.315 54.4C189.648 54.4 191.702 55.0767 193.475 56.43C196.648 58.9033 198.235 62.1 198.235 66.02C198.235 66.58 198.118 67.2567 197.885 68.05C197.698 68.8433 197.535 69.24 197.395 69.24L174.855 69.94C174.855 73.58 175.998 76.94 178.285 80.02C180.572 83.1 183.348 84.64 186.615 84.64C188.948 84.64 191.095 84.1733 193.055 83.24C195.062 82.26 196.555 81 197.535 79.46ZM175.555 67.14L191.935 66.44C192.028 66.44 192.075 66.02 192.075 65.18C192.075 62.7533 191.352 61.0267 189.905 60C188.505 58.9733 186.545 58.46 184.025 58.46C181.552 58.46 179.522 59.23 177.935 60.77C176.348 62.31 175.555 64.4333 175.555 67.14ZM239.984 88H227.944V86.04H228.224C228.738 86.04 229.158 85.7833 229.484 85.27C229.858 84.7567 230.044 84.1267 230.044 83.38V65.6C230.044 63.5 229.531 61.9133 228.504 60.84C227.524 59.72 226.124 59.16 224.304 59.16C221.691 59.16 219.381 60.56 217.374 63.36C215.368 66.16 214.364 68.26 214.364 69.66V82.96C214.364 83.7067 214.388 84.2433 214.434 84.57C214.528 84.8967 214.808 85.2233 215.274 85.55C215.741 85.8767 216.464 86.04 217.444 86.04H218.704V88H204.564V86.04H205.684C206.944 86.04 207.738 85.83 208.064 85.41C208.438 84.99 208.624 84.3133 208.624 83.38V62.38C208.624 61.4933 208.321 60.8633 207.714 60.49C207.154 60.07 206.104 59.86 204.564 59.86V57.9C205.498 57.9 206.898 57.5733 208.764 56.92C210.678 56.22 212.124 55.5667 213.104 54.96L214.364 54.68V63.64C215.438 60.7 217.094 58.4367 219.334 56.85C221.574 55.2167 224.304 54.4 227.524 54.4C229.204 54.4 230.628 54.7733 231.794 55.52C232.961 56.2667 233.801 57.2233 234.314 58.39C235.201 60.3967 235.644 62.38 235.644 64.34V83.24C235.644 83.8933 235.691 84.3833 235.784 84.71C236.018 85.5967 236.998 86.04 238.724 86.04H239.984V88ZM275.478 88H265.398V82.4C263.065 84.92 261.128 86.6467 259.588 87.58C258.048 88.5133 255.948 88.98 253.288 88.98C250.675 88.98 248.622 88.3733 247.128 87.16C245.682 85.9 244.958 84.15 244.958 81.91C244.958 79.67 245.915 77.5 247.828 75.4C249.788 73.2533 252.052 71.6433 254.618 70.57C257.232 69.45 259.518 68.61 261.478 68.05C263.438 67.4433 264.745 67.14 265.398 67.14V65.6C265.398 61.2133 263.578 59.02 259.938 59.02C257.418 59.02 255.062 59.5567 252.868 60.63C250.722 61.7033 249.112 63.08 248.038 64.76L246.638 63.5C249.765 57.4333 255.178 54.4 262.878 54.4C264.838 54.4 266.448 54.9367 267.708 56.01C269.015 57.0367 269.878 58.25 270.298 59.65C270.765 61.05 270.998 62.6133 270.998 64.34V83.24C270.998 83.8467 271.045 84.3133 271.138 84.64C271.232 84.9667 271.512 85.2933 271.978 85.62C272.492 85.9 273.238 86.04 274.218 86.04H275.478V88ZM265.398 78.48V69.94C261.758 70.64 258.375 72.04 255.248 74.14C252.122 76.24 250.558 78.5267 250.558 81C250.558 81.98 251.025 82.8433 251.958 83.59C252.938 84.29 254.128 84.64 255.528 84.64C256.975 84.64 258.678 84.01 260.638 82.75C262.598 81.4433 264.185 80.02 265.398 78.48Z" fill="#7E41E0"/>
<rect x="2" y="2" width="342" height="122" rx="61" stroke="url(#paint0_linear_811_124)" stroke-width="4"/>
<defs>
<linearGradient id="paint0_linear_811_124" x1="173" y1="0" x2="173" y2="126" gradientUnits="userSpaceOnUse">
<stop stop-color="#FFCB05"/>
<stop offset="0.96875" stop-color="#7E41E0"/>
</linearGradient>
</defs>
</svg>
